<svg width="350" height="350" viewBox="0 0 350 350" fill="none" xmlns="http://www.w3.org/2000/svg">
<g filter="url(#filter0_d)">
<path d="M336 12.0229L172.865 235.416L13.109 174.5L60.7678 12.0229L336 12.0229Z" fill="#C25D5D"/>
</g>
<g filter="url(#filter1_d)">
<path d="M336 338.387L172.865 114.994L13.109 174.5L60.7678 338.387L336 338.387Z" fill="#C4C4C4"/>
</g>
<g filter="url(#filter2_d)">
<path d="M311.109 174.5L108.769 278L13.109 174.5L108.769 70.9999L311.109 174.5Z" fill="#143642"/>
</g>
<path d="M184.511 326.608C183.999 326.608 183.583 326.52 183.263 326.344C182.959 326.168 182.735 325.976 182.591 325.768C182.303 325.96 181.911 326.152 181.415 326.344C180.919 326.536 180.375 326.632 179.783 326.632C179.047 326.632 178.367 326.528 177.743 326.32C177.135 326.096 176.599 325.768 176.135 325.336C175.687 324.888 175.335 324.328 175.079 323.656C174.823 322.984 174.695 322.192 174.695 321.28C174.695 320.528 174.807 319.824 175.031 319.168C175.271 318.512 175.607 317.944 176.039 317.464C176.487 316.968 177.031 316.584 177.671 316.312C178.327 316.024 179.071 315.88 179.903 315.88C180.671 315.88 181.359 315.952 181.967 316.096C182.591 316.224 183.079 316.36 183.431 316.504V323.536C183.431 324.16 183.535 324.608 183.743 324.88C183.967 325.152 184.255 325.288 184.607 325.288C185.151 325.288 185.591 325.12 185.927 324.784C186.279 324.432 186.551 324 186.743 323.488C186.951 322.96 187.095 322.408 187.175 321.832C187.255 321.24 187.295 320.704 187.295 320.224C187.295 319.184 187.119 318.192 186.767 317.248C186.415 316.304 185.903 315.48 185.231 314.776C184.575 314.056 183.767 313.488 182.807 313.072C181.847 312.64 180.759 312.424 179.543 312.424C178.311 312.424 177.191 312.624 176.183 313.024C175.175 313.408 174.311 313.976 173.591 314.728C172.871 315.48 172.311 316.408 171.911 317.512C171.511 318.6 171.311 319.848 171.311 321.256C171.311 322.744 171.527 324.048 171.959 325.168C172.407 326.288 173.015 327.224 173.783 327.976C174.551 328.728 175.455 329.288 176.495 329.656C177.551 330.04 178.687 330.232 179.903 330.232C180.831 330.232 181.559 330.184 182.087 330.088C182.631 330.008 182.991 329.936 183.167 329.872L183.335 331.192C183.063 331.272 182.607 331.36 181.967 331.456C181.327 331.552 180.639 331.6 179.903 331.6C178.511 331.6 177.199 331.392 175.967 330.976C174.735 330.576 173.655 329.944 172.727 329.08C171.815 328.232 171.087 327.16 170.543 325.864C170.015 324.568 169.751 323.032 169.751 321.256C169.751 319.544 170.007 318.048 170.519 316.768C171.031 315.488 171.727 314.424 172.607 313.576C173.503 312.728 174.543 312.096 175.727 311.68C176.927 311.264 178.199 311.056 179.543 311.056C180.823 311.056 182.023 311.272 183.143 311.704C184.279 312.136 185.271 312.752 186.119 313.552C186.967 314.352 187.631 315.32 188.111 316.456C188.607 317.592 188.855 318.864 188.855 320.272C188.855 321.312 188.743 322.232 188.519 323.032C188.295 323.816 187.983 324.472 187.583 325C187.199 325.528 186.743 325.928 186.215 326.2C185.687 326.472 185.119 326.608 184.511 326.608ZM179.687 325.336C180.231 325.336 180.671 325.296 181.007 325.216C181.343 325.12 181.695 324.96 182.063 324.736C181.999 324.576 181.951 324.376 181.919 324.136C181.903 323.88 181.895 323.664 181.895 323.488V317.392C181.767 317.36 181.559 317.32 181.271 317.272C180.983 317.208 180.583 317.176 180.071 317.176C179.463 317.176 178.919 317.28 178.439 317.488C177.975 317.68 177.583 317.96 177.263 318.328C176.943 318.68 176.703 319.112 176.543 319.624C176.383 320.12 176.303 320.664 176.303 321.256C176.303 321.96 176.391 322.568 176.567 323.08C176.743 323.592 176.983 324.016 177.287 324.352C177.591 324.688 177.951 324.936 178.367 325.096C178.783 325.256 179.223 325.336 179.687 325.336ZM191.913 321.784C191.913 320.696 192.065 319.752 192.369 318.952C192.689 318.136 193.097 317.456 193.593 316.912C194.105 316.368 194.681 315.968 195.321 315.712C195.977 315.44 196.649 315.304 197.337 315.304C198.857 315.304 200.065 315.8 200.961 316.792C201.873 317.784 202.329 319.312 202.329 321.376C202.329 321.504 202.321 321.632 202.305 321.76C202.305 321.888 202.297 322.008 202.281 322.12H193.569C193.617 323.64 193.993 324.808 194.697 325.624C195.401 326.44 196.521 326.848 198.057 326.848C198.905 326.848 199.577 326.768 200.073 326.608C200.569 326.448 200.929 326.312 201.153 326.2L201.441 327.544C201.217 327.672 200.793 327.824 200.169 328C199.561 328.176 198.841 328.264 198.009 328.264C196.921 328.264 195.993 328.104 195.225 327.784C194.457 327.464 193.825 327.016 193.329 326.44C192.833 325.864 192.473 325.184 192.249 324.4C192.025 323.6 191.913 322.728 191.913 321.784ZM200.721 320.8C200.689 319.504 200.385 318.496 199.809 317.776C199.233 317.056 198.417 316.696 197.361 316.696C196.801 316.696 196.297 316.808 195.849 317.032C195.417 317.256 195.033 317.56 194.697 317.944C194.377 318.312 194.121 318.744 193.929 319.24C193.753 319.736 193.649 320.256 193.617 320.8H200.721ZM208.35 326.896C209.246 326.896 209.982 326.752 210.558 326.464C211.15 326.16 211.446 325.656 211.446 324.952C211.446 324.616 211.39 324.328 211.278 324.088C211.182 323.848 211.014 323.632 210.774 323.44C210.534 323.248 210.214 323.064 209.814 322.888C209.43 322.712 208.95 322.504 208.374 322.264C207.91 322.072 207.47 321.88 207.054 321.688C206.638 321.48 206.27 321.248 205.95 320.992C205.63 320.72 205.374 320.4 205.182 320.032C204.99 319.664 204.894 319.216 204.894 318.688C204.894 317.68 205.27 316.864 206.022 316.24C206.79 315.616 207.838 315.304 209.166 315.304C210.014 315.304 210.71 315.376 211.254 315.52C211.814 315.664 212.206 315.792 212.43 315.904L212.07 317.296C211.878 317.2 211.55 317.072 211.086 316.912C210.638 316.752 209.974 316.672 209.094 316.672C208.742 316.672 208.406 316.712 208.086 316.792C207.782 316.856 207.51 316.968 207.27 317.128C207.03 317.272 206.838 317.464 206.694 317.704C206.55 317.928 206.478 318.208 206.478 318.544C206.478 318.88 206.542 319.168 206.67 319.408C206.798 319.648 206.982 319.864 207.222 320.056C207.478 320.232 207.782 320.4 208.134 320.56C208.502 320.72 208.918 320.896 209.382 321.088C209.862 321.28 210.318 321.48 210.75 321.688C211.198 321.88 211.59 322.12 211.926 322.408C212.262 322.68 212.534 323.016 212.742 323.416C212.95 323.8 213.054 324.288 213.054 324.88C213.054 326 212.63 326.848 211.782 327.424C210.95 328 209.806 328.288 208.35 328.288C207.262 328.288 206.43 328.192 205.854 328C205.278 327.824 204.894 327.688 204.702 327.592L205.11 326.176C205.158 326.208 205.262 326.264 205.422 326.344C205.582 326.408 205.798 326.488 206.07 326.584C206.342 326.664 206.662 326.736 207.03 326.8C207.414 326.864 207.854 326.896 208.35 326.896ZM219.983 326.872C220.591 326.872 221.119 326.856 221.567 326.824C222.031 326.776 222.423 326.72 222.743 326.656V322.288C222.567 322.208 222.287 322.128 221.903 322.048C221.519 321.952 220.991 321.904 220.319 321.904C219.935 321.904 219.535 321.936 219.119 322C218.703 322.048 218.319 322.168 217.967 322.36C217.615 322.536 217.327 322.784 217.103 323.104C216.879 323.424 216.767 323.848 216.767 324.376C216.767 324.84 216.839 325.232 216.983 325.552C217.143 325.872 217.359 326.128 217.631 326.32C217.919 326.512 218.255 326.656 218.639 326.752C219.039 326.832 219.487 326.872 219.983 326.872ZM219.839 315.304C220.655 315.304 221.343 315.424 221.903 315.664C222.479 315.888 222.943 316.208 223.295 316.624C223.647 317.024 223.903 317.504 224.063 318.064C224.223 318.624 224.303 319.232 224.303 319.888V327.712C224.143 327.76 223.911 327.816 223.607 327.88C223.303 327.928 222.951 327.984 222.551 328.048C222.151 328.112 221.703 328.16 221.207 328.192C220.727 328.24 220.231 328.264 219.719 328.264C219.063 328.264 218.455 328.192 217.895 328.048C217.351 327.904 216.871 327.68 216.455 327.376C216.055 327.056 215.735 326.656 215.495 326.176C215.271 325.68 215.159 325.08 215.159 324.376C215.159 323.704 215.287 323.128 215.543 322.648C215.799 322.168 216.159 321.776 216.623 321.472C217.087 321.152 217.639 320.92 218.279 320.776C218.919 320.632 219.615 320.56 220.367 320.56C220.591 320.56 220.823 320.576 221.063 320.608C221.319 320.624 221.559 320.656 221.783 320.704C222.023 320.736 222.223 320.776 222.383 320.824C222.559 320.856 222.679 320.888 222.743 320.92V320.152C222.743 319.72 222.711 319.304 222.647 318.904C222.583 318.488 222.439 318.12 222.215 317.8C222.007 317.464 221.703 317.2 221.303 317.008C220.919 316.8 220.407 316.696 219.767 316.696C218.855 316.696 218.175 316.76 217.727 316.888C217.279 317.016 216.951 317.12 216.743 317.2L216.527 315.832C216.799 315.704 217.215 315.584 217.775 315.472C218.351 315.36 219.039 315.304 219.839 315.304ZM228.282 316.024C228.746 315.896 229.37 315.752 230.154 315.592C230.938 315.432 231.898 315.352 233.034 315.352C233.978 315.352 234.762 315.488 235.386 315.76C236.026 316.032 236.53 316.424 236.898 316.936C237.282 317.432 237.554 318.032 237.714 318.736C237.874 319.44 237.954 320.216 237.954 321.064V328H236.394V321.568C236.394 320.688 236.33 319.944 236.202 319.336C236.09 318.728 235.89 318.232 235.602 317.848C235.33 317.464 234.962 317.192 234.498 317.032C234.05 316.856 233.482 316.768 232.794 316.768C232.058 316.768 231.418 316.808 230.874 316.888C230.346 316.968 230.002 317.04 229.842 317.104V328H228.282V316.024ZM247.082 328.264C246.122 328.264 245.274 328.112 244.538 327.808C243.802 327.504 243.186 327.072 242.69 326.512C242.21 325.936 241.842 325.256 241.586 324.472C241.33 323.672 241.202 322.792 241.202 321.832C241.202 320.856 241.33 319.968 241.586 319.168C241.858 318.368 242.242 317.68 242.738 317.104C243.234 316.528 243.834 316.088 244.538 315.784C245.242 315.464 246.034 315.304 246.914 315.304C247.586 315.304 248.21 315.36 248.786 315.472C249.378 315.584 249.834 315.728 250.154 315.904L249.746 317.248C249.426 317.088 249.066 316.96 248.666 316.864C248.266 316.768 247.73 316.72 247.058 316.72C245.682 316.72 244.634 317.168 243.914 318.064C243.21 318.944 242.858 320.2 242.858 321.832C242.858 322.568 242.938 323.248 243.098 323.872C243.258 324.48 243.514 325.008 243.866 325.456C244.234 325.888 244.698 326.232 245.258 326.488C245.834 326.728 246.53 326.848 247.346 326.848C248.018 326.848 248.578 326.776 249.026 326.632C249.49 326.472 249.826 326.336 250.034 326.224L250.37 327.568C250.082 327.728 249.626 327.88 249.002 328.024C248.394 328.184 247.754 328.264 247.082 328.264ZM252.985 328V309.664L254.545 309.376V315.952C255.057 315.76 255.577 315.616 256.105 315.52C256.633 315.408 257.161 315.352 257.689 315.352C258.649 315.352 259.449 315.488 260.089 315.76C260.729 316.032 261.241 316.424 261.625 316.936C262.009 317.432 262.273 318.032 262.417 318.736C262.577 319.44 262.657 320.216 262.657 321.064V328H261.097V321.568C261.097 320.688 261.033 319.944 260.905 319.336C260.793 318.728 260.593 318.232 260.305 317.848C260.033 317.464 259.665 317.192 259.201 317.032C258.737 316.856 258.153 316.768 257.449 316.768C257.177 316.768 256.881 316.792 256.561 316.84C256.257 316.888 255.969 316.944 255.697 317.008C255.425 317.056 255.177 317.112 254.953 317.176C254.745 317.24 254.609 317.288 254.545 317.32V328H252.985ZM265.905 321.784C265.905 320.696 266.057 319.752 266.361 318.952C266.681 318.136 267.089 317.456 267.585 316.912C268.097 316.368 268.673 315.968 269.313 315.712C269.969 315.44 270.641 315.304 271.329 315.304C272.849 315.304 274.057 315.8 274.953 316.792C275.865 317.784 276.321 319.312 276.321 321.376C276.321 321.504 276.313 321.632 276.297 321.76C276.297 321.888 276.289 322.008 276.273 322.12H267.561C267.609 323.64 267.985 324.808 268.689 325.624C269.393 326.44 270.513 326.848 272.049 326.848C272.897 326.848 273.569 326.768 274.065 326.608C274.561 326.448 274.921 326.312 275.145 326.2L275.433 327.544C275.209 327.672 274.785 327.824 274.161 328C273.553 328.176 272.833 328.264 272.001 328.264C270.913 328.264 269.985 328.104 269.217 327.784C268.449 327.464 267.817 327.016 267.321 326.44C266.825 325.864 266.465 325.184 266.241 324.4C266.017 323.6 265.905 322.728 265.905 321.784ZM274.713 320.8C274.681 319.504 274.377 318.496 273.801 317.776C273.225 317.056 272.409 316.696 271.353 316.696C270.793 316.696 270.289 316.808 269.841 317.032C269.409 317.256 269.025 317.56 268.689 317.944C268.369 318.312 268.113 318.744 267.921 319.24C267.745 319.736 267.641 320.256 267.609 320.8H274.713ZM287.502 316.864C287.134 317.28 286.654 317.856 286.062 318.592C285.47 319.328 284.838 320.152 284.166 321.064C283.494 321.96 282.83 322.904 282.174 323.896C281.518 324.872 280.942 325.8 280.446 326.68H287.718V328H278.646V326.872C279.062 326.088 279.574 325.224 280.182 324.28C280.806 323.336 281.446 322.408 282.102 321.496C282.758 320.568 283.398 319.704 284.022 318.904C284.646 318.088 285.174 317.424 285.606 316.912H279.006V315.592H287.502V316.864ZM294.464 326.32C294.8 325.632 295.144 324.848 295.496 323.968C295.848 323.072 296.184 322.152 296.504 321.208C296.84 320.248 297.144 319.288 297.416 318.328C297.704 317.352 297.944 316.44 298.136 315.592H299.696C299.408 316.728 299.088 317.848 298.736 318.952C298.384 320.056 298.008 321.136 297.608 322.192C297.224 323.248 296.816 324.264 296.384 325.24C295.968 326.216 295.56 327.136 295.16 328H293.672C293.256 327.136 292.84 326.216 292.424 325.24C292.008 324.264 291.6 323.248 291.2 322.192C290.816 321.136 290.448 320.056 290.096 318.952C289.744 317.848 289.424 316.728 289.136 315.592H290.792C290.984 316.44 291.216 317.352 291.488 318.328C291.776 319.288 292.08 320.248 292.4 321.208C292.736 322.152 293.08 323.072 293.432 323.968C293.784 324.848 294.128 325.632 294.464 326.32ZM309.955 316.864C309.587 317.28 309.107 317.856 308.515 318.592C307.923 319.328 307.291 320.152 306.619 321.064C305.947 321.96 305.283 322.904 304.627 323.896C303.971 324.872 303.395 325.8 302.899 326.68H310.171V328H301.099V326.872C301.515 326.088 302.027 325.224 302.635 324.28C303.259 323.336 303.899 322.408 304.555 321.496C305.211 320.568 305.851 319.704 306.475 318.904C307.099 318.088 307.627 317.424 308.059 316.912H301.459V315.592H309.955V316.864Z" fill="#143642"/>
<defs>
<filter id="filter0_d" x="-46.4348" y="-98.3062" width="443.17" height="393.509" filterUnits="userSpaceOnUse" color-interpolation-filters="sRGB">
<feFlood flood-opacity="0" result="BackgroundImageFix"/>
<feColorMatrix in="SourceAlpha" type="matrix" values="0 0 0 0 0 0 0 0 0 0 0 0 0 0 0 0 0 0 127 0"/>
<feOffset dy="4"/>
<feGaussianBlur stdDeviation="2"/>
<feColorMatrix type="matrix" values="0 0 0 0 0 0 0 0 0 0 0 0 0 0 0 0 0 0 0.25 0"/>
<feBlend mode="normal" in2="BackgroundImageFix" result="effect1_dropShadow"/>
<feBlend mode="normal" in="SourceGraphic" in2="effect1_dropShadow" result="shape"/>
</filter>
<filter id="filter1_d" x="-47" y="62.9236" width="443.735" height="393.793" filterUnits="userSpaceOnUse" color-interpolation-filters="sRGB">
<feFlood flood-opacity="0" result="BackgroundImageFix"/>
<feColorMatrix in="SourceAlpha" type="matrix" values="0 0 0 0 0 0 0 0 0 0 0 0 0 0 0 0 0 0 127 0"/>
<feOffset dy="4"/>
<feGaussianBlur stdDeviation="2"/>
<feColorMatrix type="matrix" values="0 0 0 0 0 0 0 0 0 0 0 0 0 0 0 0 0 0 0.25 0"/>
<feBlend mode="normal" in2="BackgroundImageFix" result="effect1_dropShadow"/>
<feBlend mode="normal" in="SourceGraphic" in2="effect1_dropShadow" result="shape"/>
</filter>
<filter id="filter2_d" x="9.10901" y="70.9999" width="306" height="215" filterUnits="userSpaceOnUse" color-interpolation-filters="sRGB">
<feFlood flood-opacity="0" result="BackgroundImageFix"/>
<feColorMatrix in="SourceAlpha" type="matrix" values="0 0 0 0 0 0 0 0 0 0 0 0 0 0 0 0 0 0 127 0"/>
<feOffset dy="4"/>
<feGaussianBlur stdDeviation="2"/>
<feColorMatrix type="matrix" values="0 0 0 0 0 0 0 0 0 0 0 0 0 0 0 0 0 0 0.25 0"/>
<feBlend mode="normal" in2="BackgroundImageFix" result="effect1_dropShadow"/>
<feBlend mode="normal" in="SourceGraphic" in2="effect1_dropShadow" result="shape"/>
</filter>
</defs>
</svg>
